<svg aria-hidden="true" style="position:absolute;width:32px;height:32px" xmlns="http://www.w3.org/2000/svg" overflow="hidden"><defs><symbol id="call-1" viewBox="0 0 32 32"><path d="M29.432 21.004c-1.959 0-3.883-.306-5.706-.909-.893-.305-1.991-.025-2.537.535l-3.598 2.716c-4.173-2.227-6.743-4.797-8.94-8.938l2.636-3.504a2.585 2.585 0 00.636-2.621 18.192 18.192 0 01-.912-5.715A2.57 2.57 0 008.443 0H2.566A2.57 2.57 0 00-.002 2.568C-.002 18.797 13.201 32 29.43 32a2.57 2.57 0 002.568-2.568v-5.86a2.57 2.57 0 00-2.568-2.568z"/></symbol><symbol id="facebook-logo" viewBox="0 0 32 32"><path d="M16 0C7.163 0 0 7.163 0 16s7.163 16 16 16 16-7.163 16-16S24.837 0 16 0zm6.104 8.148l-2.213.001c-1.735 0-2.071.825-2.071 2.035v2.668h4.138l-.002 4.179H17.82v10.724h-4.316V17.031H9.896v-4.179h3.608V9.77c0-3.576 2.185-5.524 5.375-5.524l3.225.005v3.898z"/></symbol><symbol id="instagram" viewBox="0 0 32 32"><path d="M19.063 16a3.063 3.063 0 11-6.126 0 3.063 3.063 0 016.126 0z"/><path d="M23.162 10.582a2.84 2.84 0 00-.687-1.056 2.84 2.84 0 00-1.056-.687c-.324-.126-.81-.275-1.706-.316-.969-.044-1.26-.054-3.713-.054s-2.744.009-3.713.053c-.896.041-1.382.191-1.706.316a2.84 2.84 0 00-1.056.687c-.305.296-.54.657-.688 1.056-.126.324-.275.81-.316 1.706-.044.969-.054 1.259-.054 3.713s.01 2.744.054 3.713c.041.896.19 1.382.316 1.706.147.399.382.76.687 1.056.296.305.657.54 1.056.687.324.126.81.276 1.706.316.969.044 1.259.053 3.712.053s2.744-.009 3.713-.053c.896-.041 1.382-.19 1.706-.316a3.042 3.042 0 001.744-1.744c.126-.324.275-.81.316-1.706.044-.969.053-1.26.053-3.713s-.009-2.744-.053-3.713c-.041-.896-.19-1.382-.316-1.706zM16 20.718a4.718 4.718 0 110-9.435 4.718 4.718 0 010 9.435zm4.904-8.52a1.103 1.103 0 110-2.206 1.103 1.103 0 010 2.206z"/><path d="M16 0C7.165 0 0 7.165 0 16s7.165 16 16 16 16-7.165 16-16S24.835 0 16 0zm9.132 19.788c-.044.978-.2 1.646-.427 2.23a4.697 4.697 0 01-2.687 2.687c-.584.227-1.252.382-2.23.427-.98.045-1.293.055-3.788.055s-2.808-.011-3.788-.055c-.978-.045-1.646-.2-2.23-.427a4.5 4.5 0 01-1.627-1.06 4.513 4.513 0 01-1.06-1.627c-.227-.584-.383-1.252-.427-2.23-.045-.98-.056-1.293-.056-3.788s.011-2.808.055-3.788c.044-.978.2-1.646.427-2.23a4.513 4.513 0 011.06-1.627 4.5 4.5 0 011.627-1.06c.584-.227 1.252-.382 2.23-.427.98-.045 1.293-.055 3.788-.055s2.808.011 3.788.056c.978.044 1.646.2 2.23.426a4.513 4.513 0 011.627 1.06 4.513 4.513 0 011.06 1.627c.227.584.383 1.252.427 2.23.045.98.055 1.293.055 3.788s-.011 2.808-.055 3.788z"/></symbol><symbol id="menu-1" viewBox="0 0 32 32"><path d="M0 26h32v4H0v-4zM0 14h32v4H0v-4zM0 2h32v4H0V2z"/></symbol><symbol id="icon-arrow1" viewBox="0 0 32 32"><path d="M8.9 31.099 23.999 16 8.9.901l-.898.904 14.194 14.194L8.002 30.193z"/></symbol><symbol id="icon-arrow2" viewBox="0 0 32 32"><path d="M8.013 29.978c0-.255.098-.511.293-.706L21.578 16 8.306 2.728a.998.998 0 1 1 1.412-1.412l13.978 13.978a.998.998 0 0 1 0 1.412L9.718 30.684a.998.998 0 0 1-1.705-.706z"/></symbol><symbol id="icon-chevron-left" viewBox="0 0 32 32"><path d="M22.708 3.292a.998.998 0 0 1 0 1.416L11.414 16l11.294 11.292a1 1 0 1 1-1.416 1.416l-12-12a.998.998 0 0 1 0-1.416l12-12a.998.998 0 0 1 1.416 0z"/></symbol></defs></svg>

