<svg aria-hidden="true" style="position:absolute;width:0;height:0" xmlns="http://www.w3.org/2000/svg" overflow="hidden"><defs><symbol id="icon-call" viewBox="0 0 27 32"><path d="M24.583 19.424a13.583 13.583 0 01-2.826-.682c-1.146-.406-2.385-.054-3.228.927l-1.752 2.039c-3.359-2.139-6.159-5.396-7.99-9.306l1.752-2.039c.843-.981 1.146-2.422.797-3.756a20.942 20.942 0 01-.586-3.288C10.566 1.426 9.189 0 7.549 0H3.221C2.319 0 1.449.445.843 1.219.296 1.917 0 2.821 0 3.756c0 .115.007.23.013.345a34.51 34.51 0 002.444 10.371c1.298 3.173 3.05 6.055 5.191 8.547 2.147 2.499 4.618 4.53 7.345 6.04 2.806 1.556 5.803 2.514 8.912 2.844.902.1 1.805-.253 2.477-.966.665-.705 1.047-1.717 1.047-2.767v-5.036c.007-1.901-1.219-3.503-2.846-3.71z"/></symbol><symbol id="icon-fb" viewBox="0 0 32 32"><path d="M16 0C7.163 0 0 7.164 0 15.999 0 24.836 7.163 32 16 32c8.837.002 16-7.164 16-16.001S24.837 0 16 0zm1.41 10.695v1.513h3.017l-.345 3.79h-2.814v9.476h-3.79v-9.476h-1.896v-3.79h1.878v-1.711c0-1.551.738-3.973 3.988-3.973l2.928.013v3.246h-2.128c-.345 0-.838.174-.838.911z"/></symbol><symbol id="icon-insta" viewBox="0 0 32 32"><path d="M0 16.001C0 24.835 7.163 32 16 32s16-7.163 16-15.999C32 7.163 24.837 0 16 0 7.165 0 0 7.163 0 16.001zm21.715-.002c0 3.151-2.564 5.712-5.715 5.712s-5.712-2.561-5.715-5.712c0-3.151 2.564-5.714 5.715-5.714s5.715 2.564 5.715 5.715zM16 11.671a4.333 4.333 0 014.328 4.33c0 2.386-1.94 4.328-4.328 4.328s-4.328-1.943-4.328-4.328c0-2.388 1.94-4.33 4.328-4.33zm5.698 13.817H10.302a3.883 3.883 0 01-3.879-3.879V10.387a3.883 3.883 0 013.879-3.879h11.396a3.883 3.883 0 013.879 3.879v11.222a3.883 3.883 0 01-3.879 3.879zM10.3 7.922a2.467 2.467 0 00-2.463 2.463v11.222A2.467 2.467 0 0010.3 24.07h11.396a2.467 2.467 0 002.463-2.463V10.385a2.467 2.467 0 00-2.463-2.463H10.3zm10.591 2.616c0-.496.401-.903.901-.903.496 0 .901.407.903.903a.902.902 0 01-1.804 0z"/></symbol><symbol id="icon-menu" viewBox="0 0 38 32"><path stroke-linejoin="round" stroke-width="2.824" d="M0 1.882h37.647M0 16h37.647M0 30.118h37.647"/></symbol></defs></svg>